<?xml version="1.0" encoding="utf-8"?>
<!-- Generator: Adobe Illustrator 25.2.0, SVG Export Plug-In . SVG Version: 6.00 Build 0)  -->
<svg version="1.1" id="圖層_1" xmlns="http://www.w3.org/2000/svg" xmlns:xlink="http://www.w3.org/1999/xlink" x="0px" y="0px"
	 viewBox="0 0 1200 600" style="enable-background:new 0 0 1200 600;" xml:space="preserve">
<style type="text/css">
	.st0{clip-path:url(#SVGID_2_);}
	.st1{clip-path:url(#SVGID_4_);fill:#00CC99;}
	.st2{clip-path:url(#SVGID_6_);}
	.st3{clip-path:url(#SVGID_8_);fill:#00CC99;}
	.st4{clip-path:url(#SVGID_10_);}
	.st5{clip-path:url(#SVGID_12_);fill:#00CC99;}
	.st6{clip-path:url(#SVGID_14_);}
	.st7{clip-path:url(#SVGID_16_);fill:#00CC99;}
	.st8{clip-path:url(#SVGID_18_);}
	.st9{clip-path:url(#SVGID_20_);fill:#00CC99;}
	.st10{clip-path:url(#SVGID_22_);}
	.st11{clip-path:url(#SVGID_24_);fill:#00CC99;}
	.st12{clip-path:url(#SVGID_26_);}
	.st13{clip-path:url(#SVGID_28_);fill:#00CC99;}
	.st14{clip-path:url(#SVGID_30_);}
	.st15{clip-path:url(#SVGID_32_);fill:#00CC99;}
	.st16{clip-path:url(#SVGID_34_);}
	.st17{clip-path:url(#SVGID_36_);fill:#00CC99;}
	.st18{clip-path:url(#SVGID_38_);}
	.st19{clip-path:url(#SVGID_40_);fill:#00CC99;}
	.st20{clip-path:url(#SVGID_42_);}
	.st21{clip-path:url(#SVGID_44_);fill:#00CC99;}
	.st22{clip-path:url(#SVGID_46_);}
	.st23{clip-path:url(#SVGID_48_);fill:#00CC99;}
	.st24{clip-path:url(#SVGID_50_);}
	.st25{clip-path:url(#SVGID_52_);fill:#00CC99;}
	.st26{clip-path:url(#SVGID_54_);}
	.st27{clip-path:url(#SVGID_56_);fill:#00CC99;}
	.st28{clip-path:url(#SVGID_58_);}
	.st29{clip-path:url(#SVGID_60_);fill:#00CC99;}
	.st30{clip-path:url(#SVGID_62_);}
	.st31{clip-path:url(#SVGID_64_);fill:#00CC99;}
	.st32{clip-path:url(#SVGID_66_);}
	.st33{clip-path:url(#SVGID_68_);fill:#00CC99;}
	.st34{clip-path:url(#SVGID_70_);}
	.st35{clip-path:url(#SVGID_72_);fill:#00CC99;}
	.st36{clip-path:url(#SVGID_74_);}
	.st37{clip-path:url(#SVGID_76_);fill:#00CC99;}
	.st38{clip-path:url(#SVGID_78_);}
	.st39{clip-path:url(#SVGID_80_);fill:#00CC99;}
	.st40{clip-path:url(#SVGID_82_);}
	.st41{clip-path:url(#SVGID_84_);fill:#00CC99;}
	.st42{clip-path:url(#SVGID_86_);}
	.st43{clip-path:url(#SVGID_88_);fill:#00CC99;}
	.st44{clip-path:url(#SVGID_90_);}
	.st45{clip-path:url(#SVGID_92_);fill:#00CC99;}
	.st46{clip-path:url(#SVGID_94_);}
	.st47{clip-path:url(#SVGID_96_);fill:#00CC99;}
</style>
<g>
	<defs>
		<path id="SVGID_1_" d="M343.11,283.55l-57.75-100.09c-4.55-7.89-15.73-14.35-24.84-14.35H145.01c-9.11,0-20.29,6.46-24.84,14.35
			L62.42,283.55c-4.55,7.89-4.55,20.81,0,28.7l57.75,100.09c4.55,7.89,15.73,14.35,24.84,14.35h115.51
			c9.11,0,20.29-6.46,24.84-14.35l57.75-100.09C347.66,304.35,347.66,291.44,343.11,283.55 M319.91,302.82l-54.31,94.13
			c-1.22,2.12-6.08,4.92-8.52,4.92H148.45c-2.44,0-7.3-2.81-8.52-4.92l-54.31-94.13c-1.22-2.12-1.22-7.73,0-9.85l54.31-94.13
			c1.22-2.12,6.08-4.92,8.52-4.92h108.62c2.44,0,7.3,2.81,8.52,4.92l54.31,94.13C321.13,295.09,321.13,300.7,319.91,302.82"/>
	</defs>
	<clipPath id="SVGID_2_">
		<use xlink:href="#SVGID_1_"  style="overflow:visible;"/>
	</clipPath>
	<g class="st0">
		<defs>
			<rect id="SVGID_3_" width="1200" height="600"/>
		</defs>
		<clipPath id="SVGID_4_">
			<use xlink:href="#SVGID_3_"  style="overflow:visible;"/>
		</clipPath>
		<rect x="54" y="164.1" class="st1" width="297.52" height="267.58"/>
	</g>
</g>
<g>
	<defs>
		<rect id="SVGID_5_" x="116.94" y="299.58" width="85.83" height="18.23"/>
	</defs>
	<clipPath id="SVGID_6_">
		<use xlink:href="#SVGID_5_"  style="overflow:visible;"/>
	</clipPath>
	<g class="st2">
		<defs>
			<rect id="SVGID_7_" width="1200" height="600"/>
		</defs>
		<clipPath id="SVGID_8_">
			<use xlink:href="#SVGID_7_"  style="overflow:visible;"/>
		</clipPath>
		<rect x="111.94" y="294.58" class="st3" width="95.83" height="28.23"/>
	</g>
</g>
<g>
	<defs>
		<rect id="SVGID_9_" x="133.76" y="332.26" width="69" height="18.23"/>
	</defs>
	<clipPath id="SVGID_10_">
		<use xlink:href="#SVGID_9_"  style="overflow:visible;"/>
	</clipPath>
	<g class="st4">
		<defs>
			<rect id="SVGID_11_" width="1200" height="600"/>
		</defs>
		<clipPath id="SVGID_12_">
			<use xlink:href="#SVGID_11_"  style="overflow:visible;"/>
		</clipPath>
		<rect x="128.76" y="327.26" class="st5" width="79" height="28.23"/>
	</g>
</g>
<g>
	<defs>
		<rect id="SVGID_13_" x="150.59" y="364.95" width="52.17" height="18.23"/>
	</defs>
	<clipPath id="SVGID_14_">
		<use xlink:href="#SVGID_13_"  style="overflow:visible;"/>
	</clipPath>
	<g class="st6">
		<defs>
			<rect id="SVGID_15_" width="1200" height="600"/>
		</defs>
		<clipPath id="SVGID_16_">
			<use xlink:href="#SVGID_15_"  style="overflow:visible;"/>
		</clipPath>
		<rect x="145.59" y="359.95" class="st7" width="62.17" height="28.23"/>
	</g>
</g>
<g>
	<defs>
		<path id="SVGID_17_" d="M547.15,262.57v0.33c0,2.95-1.47,4.43-4.42,4.43H411.71c-2.95,0-4.42-1.48-4.42-4.43v-0.33
			c0-2.95,1.47-4.42,4.42-4.42h57.15v-26.06c0-2.95,1.47-4.42,4.42-4.42h7.86c2.95,0,4.42,1.47,4.42,4.42v26.06h57.16
			C545.67,258.15,547.15,259.62,547.15,262.57 M457.73,296c-7.7,24.58-18.51,47.36-33.41,69.32c-1.64,2.29-3.6,2.62-6.06,1.31
			l-5.08-2.79c-2.62-1.47-3.11-3.6-1.47-6.06c12.45-19.17,22.76-41.62,30.46-66.86c0.82-2.79,2.78-3.77,5.57-2.79l7.21,2.46
			C457.57,291.41,458.55,293.38,457.73,296 M508.99,289.61c13.76,23.76,25.71,46.87,35.37,69.32c1.15,2.62,0.33,4.75-2.29,5.9
			l-6.55,2.78c-2.62,1.15-4.59,0.16-5.73-2.46c-10.32-24.58-21.78-47.52-33.57-68.5c-1.47-2.62-0.82-4.75,1.64-6.06l5.24-2.79
			C505.55,286.49,507.52,287.15,508.99,289.61"/>
	</defs>
	<clipPath id="SVGID_18_">
		<use xlink:href="#SVGID_17_"  style="overflow:visible;"/>
	</clipPath>
	<g class="st8">
		<defs>
			<rect id="SVGID_19_" width="1200" height="600"/>
		</defs>
		<clipPath id="SVGID_20_">
			<use xlink:href="#SVGID_19_"  style="overflow:visible;"/>
		</clipPath>
		<rect x="402.29" y="222.67" class="st9" width="149.86" height="150.42"/>
	</g>
</g>
<g>
	<defs>
		<path id="SVGID_21_" d="M655.07,229.79c-0.66,1.31-1.31,2.95-2.29,4.92h49.46c2.95,0,4.42,1.47,4.42,4.42v0.33
			c0,2.29-0.49,3.77-1.8,5.57c-3.6,4.42-8.84,9.83-15.56,16.22h44.38c2.95,0,4.42,1.47,4.42,4.42v85.87
			c0,17.37-2.13,19.66-21.62,19.66c-1.97,0-8.68-0.33-19.82-0.65c-2.95-0.16-4.58-1.64-4.58-4.43c-0.16-2.78,1.47-4.26,4.58-4.1
			c10.48,0.33,16.38,0.82,18.02,0.82c7.04,0,7.21-0.16,7.21-10.82V333.2h-90.73c-2.29,13.44-7.04,25.73-15.07,37.53
			c-1.64,2.46-3.93,2.78-6.22,0.98l-4.75-3.93c-2.13-1.8-2.46-3.77-1.15-6.06c9.99-16.39,13.92-35.89,13.92-69.64v-13.27l-6.88,5.57
			c-2.46,1.97-4.75,1.47-6.06-1.31l-1.64-3.28c-1.15-2.46-0.82-4.26,1.31-6.06c15.23-12.78,27.19-28.84,35.87-47.85
			c1.15-2.46,2.95-3.28,5.57-2.79l6.06,1.15C655.24,224.88,656.38,227.01,655.07,229.79z M632.47,325.17h35.05v-24.42h-33.41
			C633.94,309.6,633.45,317.47,632.47,325.17z M634.11,292.88h33.41v-23.27h-33.41V292.88z M634.93,261.26h37.5
			c5.24-4.75,11.14-10.82,17.85-18.52h-42.09C645.08,247.98,640.82,254.05,634.93,261.26z M683.57,292.88h38.32v-23.27h-38.32
			V292.88z M683.57,325.17h38.32v-24.42h-38.32V325.17z"/>
	</defs>
	<clipPath id="SVGID_22_">
		<use xlink:href="#SVGID_21_"  style="overflow:visible;"/>
	</clipPath>
	<g class="st10">
		<defs>
			<rect id="SVGID_23_" width="1200" height="600"/>
		</defs>
		<clipPath id="SVGID_24_">
			<use xlink:href="#SVGID_23_"  style="overflow:visible;"/>
		</clipPath>
		<rect x="597.67" y="217.94" class="st11" width="145.43" height="159.91"/>
	</g>
</g>
<g>
	<defs>
		<path id="SVGID_25_" d="M918.41,312.06c0,2.46-0.82,3.93-2.95,5.24c-10.81,6.72-23.91,13.27-39.14,19.5h63.54
			c2.95,0,4.42,1.47,4.42,4.43c0,2.46-1.47,3.77-4.42,3.77h-58.79v16.72c0,9.5-2.46,11.14-21.45,11.14
			c-6.55,0-14.08-0.16-22.76-0.66c-2.62-0.16-4.26-1.64-4.42-4.43c-0.16-2.78,1.47-4.26,4.58-4.1c10.65,0.33,17.52,0.82,20.8,0.82
			c7.21,0,6.39,0.82,6.39-6.72v-12.78h-63.54c-2.95,0-4.42-1.47-4.42-4.42c0-2.46,1.47-3.77,4.42-3.77h63.54v-3.11
			c0-2.95,1.47-4.43,4.42-4.43h4.58c8.03-3.28,16.87-7.54,27.68-13.27h-74.35c-2.95,0-4.42-1.47-4.42-4.42
			c0-1.97,1.47-3.11,4.42-3.11h87.45C916.94,308.45,918.41,309.76,918.41,312.06 M808.52,236.35c9.34-0.98,20.31-2.95,32.92-5.41
			c2.95-0.66,4.75,0.66,5.24,3.28c0.49,2.62-0.66,4.42-3.6,4.92c-7.37,1.47-14.9,2.62-22.11,3.77l0.33,8.85h20.47
			c2.95,0,4.42,1.47,4.42,4.42c0,1.31-1.47,1.97-4.42,1.97h-20.14l0.49,11.96h19.65c2.95,0,4.42,1.48,4.42,4.43
			c0,1.31-1.47,2.13-4.42,2.13h-19.33l0.49,12.45h94.66l0.33-12.45h-19.16c-2.95,0-4.42-1.48-4.42-4.43c0-1.31,1.47-2.13,4.42-2.13
			h19.49l0.33-11.96h-19.82c-2.95,0-4.42-1.47-4.42-4.42c0-1.31,1.47-1.97,4.42-1.97h20.14l0.49-11.47h-21.62
			c-2.95,0-4.42-1.47-4.42-4.42c0-2.13,1.47-3.28,4.42-3.28h33.9c2.95,0,4.59,1.64,4.42,4.59l-2.29,51.95h5.24
			c2.95,0,4.42,1.48,4.42,4.43v18.03c0,2.95-1.47,4.42-4.42,4.42h-7.37c-2.95,0-4.42-1.47-4.42-4.42v-14.91H813.27v14.91
			c0,2.95-1.47,4.42-4.42,4.42h-7.37c-2.95,0-4.42-1.47-4.42-4.42v-18.03c0-2.95,1.47-4.43,4.42-4.43h5.08l-2.13-48.01
			C804.26,238.32,805.74,236.68,808.52,236.35 M889.75,232.74c-2.46,2.46-5.41,5.08-9.17,8.03l8.84,6.06
			c2.46,1.8,2.78,3.93,0.82,6.23l-1.97,2.46l0.16,0.16c3.11,1.15,3.77,3.6,1.47,5.9c-2.46,2.62-5.57,5.24-9.34,8.19l8.84,6.06
			c2.46,1.8,2.62,3.77,0.82,6.23l-0.49,0.66c-1.8,2.29-3.93,2.46-6.39,0.66c-4.91-3.61-8.68-6.23-11.14-8.03
			c-4.42,2.62-10.15,5.57-16.87,8.19c-2.46,0.98-4.26,0.49-6.06-1.15c-2.13-1.97-1.47-4.1,1.64-5.41c3.93-1.8,8.19-4.1,12.77-6.88
			c-4.75-2.78-8.68-5.08-11.79-6.55c-2.78-1.47-3.44-3.6-1.47-6.06l1.31-1.64l-1.97-1.8c-2.46-2.29-1.97-4.75,1.15-6.06
			c3.93-1.64,8.19-3.93,12.77-6.88c-4.75-2.79-8.68-5.08-11.79-6.55c-2.78-1.48-3.28-3.61-1.47-6.06c1.31-1.8,3.11-2.13,5.57-0.98
			c6.71,2.95,11.79,5.57,15.72,7.86c2.62-2.13,5.41-4.59,8.52-7.86c1.64-1.97,3.6-2.46,6.06-1.47l1.97,0.82
			C891.39,228.16,892.04,230.45,889.75,232.74 M854.05,255.19c7.53,3.44,13.43,6.72,17.69,9.18c3.11-2.46,6.72-5.9,10.81-10.65
			c-2.95-1.97-6.22-4.42-10.32-7.21C867.64,249.3,861.58,252.24,854.05,255.19"/>
	</defs>
	<clipPath id="SVGID_26_">
		<use xlink:href="#SVGID_25_"  style="overflow:visible;"/>
	</clipPath>
	<g class="st12">
		<defs>
			<rect id="SVGID_27_" width="1200" height="600"/>
		</defs>
		<clipPath id="SVGID_28_">
			<use xlink:href="#SVGID_27_"  style="overflow:visible;"/>
		</clipPath>
		<rect x="791.24" y="220.53" class="st13" width="158.05" height="157.32"/>
	</g>
</g>
<g>
	<defs>
		<path id="SVGID_29_" d="M1043.86,245.04c-8.68,22.12-12.61,29.99-15.72,37.85c11.95,14.58,14.74,23.43,14.74,36.38
			c0,13.76-6.55,20.81-22.93,20.81c-2.46,0-3.93-1.31-4.42-3.93c-0.49-2.62,0.98-4.26,4.09-4.26h-1.31c7.04,0,9.83-2.95,9.83-15.08
			c0-11.64-3.28-19.5-11.96-30.97c-1.64-1.97-1.8-3.77-0.82-6.06c5.24-11.96,10.97-25.07,14.9-38.84h-19.49v126.34
			c0,2.95-1.47,4.42-4.42,4.42h-5.57c-2.95,0-4.42-1.47-4.42-4.42V237.5c0-2.95,1.47-4.43,4.42-4.43h39.8
			c2.95,0,4.42,1.48,4.42,4.43v1.97C1045,241.43,1044.68,242.91,1043.86,245.04 M1136.22,303.37c0,2.95-1.47,4.42-4.42,4.42h-22.44
			v45.72c0,7.54-1.15,7.37,8.03,7.37c5.24,0,6.06,0,7.7-4.42c0.65-1.8,1.31-9.01,1.64-20.81c0.16-3.11,1.8-4.59,4.75-4.26l6.39,0.66
			c2.78,0.33,4.09,1.8,4.09,4.75c-0.16,4.92-0.16,7.87-0.66,12.78c-0.49,6.39-0.49,12.95-5.9,17.21c-1.97,1.64-5.24,1.8-7.37,2.29
			c-1.47,0.33-8.68,0.49-11.14,0.49c-20.47,0-23.74-1.97-23.74-11.96V307.8h-9.5c-0.33,34.25-10.97,50.14-44.54,62.93
			c-2.46,0.98-4.42,0.33-5.9-1.97l-0.49-0.98c-1.64-2.62-0.82-4.75,1.97-5.9c24.07-9.67,32.43-23.43,33.08-54.08h-15.23
			c-2.95,0-4.42-1.47-4.42-4.42c0-2.79,1.47-4.26,4.42-4.26h79.26C1134.75,299.11,1136.22,300.59,1136.22,303.37 M1138.52,248.64
			v21.96c0,2.95-1.47,4.42-4.42,4.42h-7.53c-2.95,0-4.42-1.47-4.42-4.42v-18.03h-60.1v18.03c0,2.95-1.47,4.42-4.42,4.42h-7.04
			c-2.95,0-4.42-1.47-4.42-4.42v-21.96c0-2.95,1.47-4.43,4.42-4.43h31.61v-13.77c0-2.95,1.47-4.42,4.42-4.42h7.86
			c2.95,0,4.42,1.47,4.42,4.42v13.77h35.21C1137.04,244.21,1138.52,245.69,1138.52,248.64 M1119.36,273.22
			c0,2.79-1.47,4.26-4.42,4.26h-45.36c-2.95,0-4.42-1.47-4.42-4.42c0-2.62,1.47-3.93,4.42-3.93h45.36
			C1117.88,269.12,1119.36,270.6,1119.36,273.22"/>
	</defs>
	<clipPath id="SVGID_30_">
		<use xlink:href="#SVGID_29_"  style="overflow:visible;"/>
	</clipPath>
	<g class="st14">
		<defs>
			<rect id="SVGID_31_" width="1200" height="600"/>
		</defs>
		<clipPath id="SVGID_32_">
			<use xlink:href="#SVGID_31_"  style="overflow:visible;"/>
		</clipPath>
		<rect x="991.36" y="221.03" class="st15" width="155.59" height="155.68"/>
	</g>
</g>
<g>
	<defs>
		<path id="SVGID_33_" d="M1869.64,198.79l-67.16-116.24c-5.3-9.17-18.29-16.67-28.88-16.67h-134.31c-10.59,0-23.59,7.5-28.88,16.67
			l-67.16,116.24c-5.3,9.17-5.3,24.16,0,33.33l67.16,116.24c5.3,9.17,18.29,16.67,28.88,16.67h134.31c10.59,0,23.59-7.5,28.88-16.67
			l67.16-116.24C1874.94,222.95,1874.94,207.95,1869.64,198.79 M1842.67,221.17l-63.16,109.32c-1.42,2.46-7.07,5.72-9.91,5.72
			h-126.31c-2.84,0-8.49-3.26-9.91-5.72l-63.16-109.32c-1.42-2.46-1.42-8.98,0-11.44l63.16-109.32c1.42-2.46,7.07-5.72,9.91-5.72
			h126.31c2.84,0,8.49,3.26,9.91,5.72l63.16,109.32C1844.09,212.19,1844.09,218.71,1842.67,221.17"/>
	</defs>
	<clipPath id="SVGID_34_">
		<use xlink:href="#SVGID_33_"  style="overflow:visible;"/>
	</clipPath>
	<g class="st16">
		<defs>
			<rect id="SVGID_35_" x="1308" width="800" height="600"/>
		</defs>
		<clipPath id="SVGID_36_">
			<use xlink:href="#SVGID_35_"  style="overflow:visible;"/>
		</clipPath>
		<rect x="1534.27" y="60.88" class="st17" width="344.34" height="309.15"/>
	</g>
</g>
<g>
	<defs>
		<rect id="SVGID_37_" x="1606.64" y="217.4" width="99.8" height="21.17"/>
	</defs>
	<clipPath id="SVGID_38_">
		<use xlink:href="#SVGID_37_"  style="overflow:visible;"/>
	</clipPath>
	<g class="st18">
		<defs>
			<rect id="SVGID_39_" x="1308" width="800" height="600"/>
		</defs>
		<clipPath id="SVGID_40_">
			<use xlink:href="#SVGID_39_"  style="overflow:visible;"/>
		</clipPath>
		<rect x="1601.64" y="212.4" class="st19" width="109.8" height="31.17"/>
	</g>
</g>
<g>
	<defs>
		<rect id="SVGID_41_" x="1626.21" y="255.36" width="80.23" height="21.17"/>
	</defs>
	<clipPath id="SVGID_42_">
		<use xlink:href="#SVGID_41_"  style="overflow:visible;"/>
	</clipPath>
	<g class="st20">
		<defs>
			<rect id="SVGID_43_" x="1308" width="800" height="600"/>
		</defs>
		<clipPath id="SVGID_44_">
			<use xlink:href="#SVGID_43_"  style="overflow:visible;"/>
		</clipPath>
		<rect x="1621.21" y="250.36" class="st21" width="90.23" height="31.17"/>
	</g>
</g>
<g>
	<defs>
		<rect id="SVGID_45_" x="1645.78" y="293.33" width="60.66" height="21.17"/>
	</defs>
	<clipPath id="SVGID_46_">
		<use xlink:href="#SVGID_45_"  style="overflow:visible;"/>
	</clipPath>
	<g class="st22">
		<defs>
			<rect id="SVGID_47_" x="1308" width="800" height="600"/>
		</defs>
		<clipPath id="SVGID_48_">
			<use xlink:href="#SVGID_47_"  style="overflow:visible;"/>
		</clipPath>
		<rect x="1640.78" y="288.33" class="st23" width="70.66" height="31.17"/>
	</g>
</g>
<g>
	<defs>
		<path id="SVGID_49_" d="M1537.67,451.95v0.24c0,2.21-1.1,3.31-3.31,3.31h-98.05c-2.2,0-3.31-1.1-3.31-3.31v-0.24
			c0-2.2,1.1-3.31,3.31-3.31h42.77v-19.47c0-2.2,1.1-3.31,3.31-3.31h5.88c2.21,0,3.31,1.1,3.31,3.31v19.47h42.77
			C1536.56,448.64,1537.67,449.75,1537.67,451.95 M1470.75,476.94c-5.76,18.37-13.85,35.4-25,51.81c-1.22,1.71-2.7,1.96-4.53,0.98
			l-3.8-2.08c-1.96-1.1-2.33-2.69-1.1-4.53c9.31-14.33,17.04-31.11,22.8-49.97c0.61-2.08,2.08-2.82,4.17-2.08l5.39,1.84
			C1470.63,473.51,1471.36,474.98,1470.75,476.94 M1509.11,472.16c10.3,17.76,19.24,35.03,26.47,51.81
			c0.86,1.96,0.25,3.55-1.72,4.41l-4.9,2.08c-1.96,0.86-3.43,0.12-4.29-1.84c-7.72-18.37-16.3-35.52-25.12-51.2
			c-1.1-1.96-0.61-3.55,1.23-4.53l3.92-2.08C1506.54,469.83,1508.01,470.32,1509.11,472.16"/>
	</defs>
	<clipPath id="SVGID_50_">
		<use xlink:href="#SVGID_49_"  style="overflow:visible;"/>
	</clipPath>
	<g class="st24">
		<defs>
			<rect id="SVGID_51_" x="1308" width="800" height="600"/>
		</defs>
		<clipPath id="SVGID_52_">
			<use xlink:href="#SVGID_51_"  style="overflow:visible;"/>
		</clipPath>
		<rect x="1428" y="420.86" class="st25" width="114.67" height="114.95"/>
	</g>
</g>
<g>
	<defs>
		<path id="SVGID_53_" d="M1618.43,427.45c-0.49,0.98-0.98,2.2-1.72,3.68h37.01c2.21,0,3.31,1.1,3.31,3.31v0.24
			c0,1.71-0.37,2.82-1.35,4.16c-2.7,3.31-6.62,7.35-11.64,12.12h33.21c2.21,0,3.31,1.1,3.31,3.31v64.18
			c0,12.98-1.59,14.7-16.18,14.7c-1.47,0-6.49-0.24-14.83-0.49c-2.21-0.12-3.43-1.23-3.43-3.31c-0.12-2.08,1.1-3.18,3.43-3.06
			c7.84,0.25,12.26,0.61,13.48,0.61c5.27,0,5.39-0.12,5.39-8.08v-14.09h-67.9c-1.72,10.04-5.27,19.23-11.28,28.05
			c-1.22,1.84-2.94,2.08-4.66,0.73l-3.55-2.94c-1.59-1.35-1.84-2.82-0.86-4.53c7.48-12.25,10.42-26.82,10.42-52.05v-9.92l-5.15,4.16
			c-1.84,1.47-3.55,1.1-4.53-0.98l-1.23-2.45c-0.86-1.84-0.61-3.18,0.98-4.53c11.4-9.55,20.35-21.56,26.84-35.76
			c0.86-1.84,2.21-2.45,4.17-2.08l4.53,0.86C1618.56,423.78,1619.41,425.37,1618.43,427.45z M1601.52,498.74h26.23v-18.25h-25
			C1602.62,487.1,1602.25,492.98,1601.52,498.74z M1602.74,474.61h25v-17.39h-25V474.61z M1603.36,450.97h28.07
			c3.92-3.55,8.33-8.08,13.36-13.84h-31.5C1610.96,441.05,1607.77,445.58,1603.36,450.97z M1639.76,474.61h28.68v-17.39h-28.68
			V474.61z M1639.76,498.74h28.68v-18.25h-28.68V498.74z"/>
	</defs>
	<clipPath id="SVGID_54_">
		<use xlink:href="#SVGID_53_"  style="overflow:visible;"/>
	</clipPath>
	<g class="st26">
		<defs>
			<rect id="SVGID_55_" x="1308" width="800" height="600"/>
		</defs>
		<clipPath id="SVGID_56_">
			<use xlink:href="#SVGID_55_"  style="overflow:visible;"/>
		</clipPath>
		<rect x="1574.22" y="417.33" class="st27" width="111.35" height="122.05"/>
	</g>
</g>
<g>
	<defs>
		<path id="SVGID_57_" d="M1815.51,488.94c0,1.84-0.61,2.94-2.21,3.92c-8.09,5.02-17.89,9.92-29.29,14.58h47.55
			c2.21,0,3.31,1.1,3.31,3.31c0,1.84-1.1,2.82-3.31,2.82h-44v12.49c0,7.1-1.84,8.33-16.06,8.33c-4.9,0-10.54-0.12-17.04-0.49
			c-1.96-0.12-3.19-1.23-3.31-3.31c-0.12-2.08,1.1-3.18,3.43-3.06c7.97,0.24,13.11,0.61,15.57,0.61c5.39,0,4.78,0.61,4.78-5.02
			v-9.55h-47.55c-2.21,0-3.31-1.1-3.31-3.31c0-1.84,1.1-2.82,3.31-2.82h47.55v-2.33c0-2.2,1.1-3.31,3.31-3.31h3.43
			c6.01-2.45,12.62-5.63,20.71-9.92h-55.64c-2.21,0-3.31-1.1-3.31-3.31c0-1.47,1.1-2.33,3.31-2.33h65.45
			C1814.4,486.24,1815.51,487.23,1815.51,488.94 M1733.27,432.35c6.99-0.74,15.2-2.21,24.64-4.04c2.21-0.49,3.55,0.49,3.92,2.45
			c0.37,1.96-0.49,3.31-2.7,3.67c-5.52,1.1-11.15,1.96-16.55,2.82l0.24,6.61h15.32c2.21,0,3.31,1.1,3.31,3.31
			c0,0.98-1.1,1.47-3.31,1.47h-15.07l0.37,8.94h14.71c2.21,0,3.31,1.1,3.31,3.31c0,0.98-1.1,1.59-3.31,1.59h-14.46l0.37,9.31h70.84
			l0.25-9.31h-14.34c-2.21,0-3.31-1.1-3.31-3.31c0-0.98,1.1-1.59,3.31-1.59h14.59l0.24-8.94h-14.83c-2.21,0-3.31-1.1-3.31-3.31
			c0-0.98,1.1-1.47,3.31-1.47h15.08l0.37-8.57h-16.18c-2.2,0-3.31-1.1-3.31-3.31c0-1.59,1.1-2.45,3.31-2.45h25.37
			c2.21,0,3.43,1.23,3.31,3.43l-1.71,38.83h3.92c2.21,0,3.31,1.1,3.31,3.31v13.47c0,2.2-1.1,3.31-3.31,3.31h-5.52
			c-2.2,0-3.31-1.1-3.31-3.31v-11.15h-85.3v11.15c0,2.2-1.1,3.31-3.31,3.31H1728c-2.21,0-3.31-1.1-3.31-3.31V475.1
			c0-2.2,1.1-3.31,3.31-3.31h3.8l-1.59-35.89C1730.08,433.82,1731.19,432.6,1733.27,432.35 M1794.06,429.66
			c-1.84,1.84-4.05,3.8-6.86,6l6.62,4.53c1.84,1.35,2.08,2.94,0.61,4.65l-1.47,1.84l0.12,0.12c2.33,0.86,2.82,2.69,1.1,4.41
			c-1.84,1.96-4.17,3.92-6.99,6.12l6.62,4.53c1.84,1.35,1.96,2.82,0.61,4.65l-0.37,0.49c-1.35,1.71-2.94,1.84-4.78,0.49
			c-3.68-2.69-6.49-4.65-8.33-6c-3.31,1.96-7.6,4.16-12.62,6.12c-1.84,0.73-3.19,0.37-4.54-0.86c-1.59-1.47-1.1-3.06,1.22-4.04
			c2.94-1.35,6.13-3.06,9.56-5.14c-3.55-2.08-6.5-3.8-8.82-4.9c-2.08-1.1-2.57-2.69-1.1-4.53l0.98-1.23l-1.47-1.35
			c-1.84-1.71-1.47-3.55,0.86-4.53c2.94-1.22,6.13-2.94,9.56-5.14c-3.55-2.08-6.5-3.8-8.82-4.9c-2.08-1.1-2.45-2.69-1.1-4.53
			c0.98-1.35,2.33-1.59,4.17-0.73c5.03,2.2,8.83,4.16,11.77,5.88c1.96-1.59,4.04-3.43,6.37-5.88c1.23-1.47,2.7-1.84,4.54-1.1
			l1.47,0.61C1795.28,426.23,1795.77,427.94,1794.06,429.66 M1767.34,446.44c5.64,2.57,10.05,5.02,13.24,6.86
			c2.33-1.84,5.02-4.41,8.09-7.96c-2.21-1.47-4.66-3.31-7.72-5.39C1777.51,442.03,1772.98,444.23,1767.34,446.44"/>
	</defs>
	<clipPath id="SVGID_58_">
		<use xlink:href="#SVGID_57_"  style="overflow:visible;"/>
	</clipPath>
	<g class="st28">
		<defs>
			<rect id="SVGID_59_" x="1308" width="800" height="600"/>
		</defs>
		<clipPath id="SVGID_60_">
			<use xlink:href="#SVGID_59_"  style="overflow:visible;"/>
		</clipPath>
		<rect x="1719.08" y="419.27" class="st29" width="120.79" height="120.11"/>
	</g>
</g>
<g>
	<defs>
		<path id="SVGID_61_" d="M1909.39,438.85c-6.5,16.53-9.44,22.41-11.77,28.29c8.95,10.9,11.03,17.52,11.03,27.19
			c0,10.29-4.9,15.55-17.16,15.55c-1.84,0-2.94-0.98-3.31-2.94c-0.37-1.96,0.73-3.18,3.06-3.18h-0.98c5.27,0,7.35-2.2,7.35-11.27
			c0-8.7-2.45-14.58-8.95-23.15c-1.22-1.47-1.35-2.82-0.61-4.53c3.92-8.94,8.21-18.74,11.15-29.03h-14.58v94.43
			c0,2.2-1.1,3.31-3.31,3.31h-4.17c-2.21,0-3.31-1.1-3.31-3.31v-97.01c0-2.2,1.1-3.31,3.31-3.31h29.78c2.21,0,3.31,1.1,3.31,3.31
			v1.47C1910.24,436.15,1910,437.25,1909.39,438.85 M1978.51,482.45c0,2.21-1.1,3.31-3.31,3.31h-16.79v34.17
			c0,5.63-0.86,5.51,6.01,5.51c3.92,0,4.53,0,5.76-3.31c0.49-1.35,0.98-6.74,1.23-15.56c0.12-2.33,1.35-3.43,3.55-3.18l4.78,0.49
			c2.08,0.25,3.06,1.35,3.06,3.55c-0.12,3.68-0.12,5.88-0.49,9.55c-0.37,4.78-0.37,9.68-4.41,12.86c-1.47,1.22-3.92,1.35-5.51,1.71
			c-1.1,0.24-6.5,0.37-8.33,0.37c-15.32,0-17.77-1.47-17.77-8.94v-37.23h-7.11c-0.24,25.6-8.21,37.48-33.33,47.03
			c-1.84,0.73-3.31,0.25-4.41-1.47l-0.37-0.74c-1.23-1.96-0.61-3.55,1.47-4.41c18.02-7.23,24.27-17.52,24.76-40.42h-11.4
			c-2.21,0-3.31-1.1-3.31-3.31c0-2.08,1.1-3.18,3.31-3.18h59.32C1977.41,479.26,1978.51,480.37,1978.51,482.45 M1980.22,441.54
			v16.41c0,2.2-1.1,3.31-3.31,3.31h-5.64c-2.21,0-3.31-1.1-3.31-3.31v-13.47h-44.98v13.47c0,2.2-1.1,3.31-3.31,3.31h-5.27
			c-2.21,0-3.31-1.1-3.31-3.31v-16.41c0-2.21,1.1-3.31,3.31-3.31h23.65v-10.29c0-2.2,1.1-3.31,3.31-3.31h5.88
			c2.21,0,3.31,1.1,3.31,3.31v10.29h26.35C1979.12,438.23,1980.22,439.33,1980.22,441.54 M1965.89,459.91c0,2.08-1.1,3.19-3.31,3.19
			h-33.95c-2.21,0-3.31-1.1-3.31-3.31c0-1.96,1.1-2.94,3.31-2.94h33.95C1964.78,456.85,1965.89,457.95,1965.89,459.91"/>
	</defs>
	<clipPath id="SVGID_62_">
		<use xlink:href="#SVGID_61_"  style="overflow:visible;"/>
	</clipPath>
	<g class="st30">
		<defs>
			<rect id="SVGID_63_" x="1308" width="800" height="600"/>
		</defs>
		<clipPath id="SVGID_64_">
			<use xlink:href="#SVGID_63_"  style="overflow:visible;"/>
		</clipPath>
		<rect x="1868.84" y="419.64" class="st31" width="118.96" height="118.89"/>
	</g>
</g>
<g>
	<defs>
		<path id="SVGID_65_" d="M1951.49,1072.57l-100.23-173.4c-7.9-13.67-27.3-24.86-43.11-24.86h-200.47
			c-15.81,0-35.21,11.19-43.11,24.86l-100.23,173.4c-7.9,13.67-7.9,36.05,0,49.72l100.23,173.4c7.9,13.67,27.3,24.86,43.11,24.86
			h200.47c15.81,0,35.21-11.19,43.11-24.86l100.23-173.4C1959.4,1108.61,1959.4,1086.24,1951.49,1072.57 M1911.23,1105.96
			l-94.26,163.07c-2.12,3.67-10.55,8.53-14.79,8.53h-188.52c-4.24,0-12.68-4.86-14.8-8.53l-94.26-163.07
			c-2.12-3.67-2.12-13.39,0-17.06l94.26-163.07c2.12-3.67,10.55-8.53,14.8-8.53h188.52c4.24,0,12.67,4.86,14.79,8.53l94.26,163.07
			C1913.35,1092.56,1913.35,1102.29,1911.23,1105.96"/>
	</defs>
	<clipPath id="SVGID_66_">
		<use xlink:href="#SVGID_65_"  style="overflow:visible;"/>
	</clipPath>
	<g class="st32">
		<defs>
			<rect id="SVGID_67_" x="1308" y="797" width="800" height="600"/>
		</defs>
		<clipPath id="SVGID_68_">
			<use xlink:href="#SVGID_67_"  style="overflow:visible;"/>
		</clipPath>
		<rect x="1453.41" y="869.31" class="st33" width="509.01" height="456.24"/>
	</g>
</g>
<g>
	<defs>
		<rect id="SVGID_69_" x="1558.96" y="1100.34" width="148.96" height="31.58"/>
	</defs>
	<clipPath id="SVGID_70_">
		<use xlink:href="#SVGID_69_"  style="overflow:visible;"/>
	</clipPath>
	<g class="st34">
		<defs>
			<rect id="SVGID_71_" x="1308" y="797" width="800" height="600"/>
		</defs>
		<clipPath id="SVGID_72_">
			<use xlink:href="#SVGID_71_"  style="overflow:visible;"/>
		</clipPath>
		<rect x="1553.96" y="1095.34" class="st35" width="158.96" height="41.58"/>
	</g>
</g>
<g>
	<defs>
		<rect id="SVGID_73_" x="1588.17" y="1156.96" width="119.75" height="31.58"/>
	</defs>
	<clipPath id="SVGID_74_">
		<use xlink:href="#SVGID_73_"  style="overflow:visible;"/>
	</clipPath>
	<g class="st36">
		<defs>
			<rect id="SVGID_75_" x="1308" y="797" width="800" height="600"/>
		</defs>
		<clipPath id="SVGID_76_">
			<use xlink:href="#SVGID_75_"  style="overflow:visible;"/>
		</clipPath>
		<rect x="1583.17" y="1151.96" class="st37" width="129.75" height="41.58"/>
	</g>
</g>
<g>
	<defs>
		<rect id="SVGID_77_" x="1617.37" y="1213.6" width="90.54" height="31.58"/>
	</defs>
	<clipPath id="SVGID_78_">
		<use xlink:href="#SVGID_77_"  style="overflow:visible;"/>
	</clipPath>
	<g class="st38">
		<defs>
			<rect id="SVGID_79_" x="1308" y="797" width="800" height="600"/>
		</defs>
		<clipPath id="SVGID_80_">
			<use xlink:href="#SVGID_79_"  style="overflow:visible;"/>
		</clipPath>
		<rect x="1612.37" y="1208.6" class="st39" width="100.54" height="41.58"/>
	</g>
</g>
<g>
	<defs>
		<path id="SVGID_81_" d="M268.21,921.11v0.48c0,4.3-2.15,6.45-6.44,6.45H70.86c-4.3,0-6.44-2.15-6.44-6.45v-0.48
			c0-4.3,2.15-6.45,6.44-6.45h83.28V876.7c0-4.3,2.15-6.45,6.44-6.45h11.46c4.3,0,6.44,2.15,6.44,6.45v37.96h83.28
			C266.07,914.66,268.21,916.81,268.21,921.11 M137.92,969.81c-11.22,35.81-26.97,69-48.68,100.99c-2.39,3.34-5.25,3.82-8.83,1.91
			l-7.4-4.06c-3.82-2.15-4.54-5.25-2.15-8.83c18.13-27.93,33.17-60.64,44.39-97.41c1.19-4.06,4.06-5.49,8.11-4.06l10.5,3.58
			C137.68,963.13,139.11,965.99,137.92,969.81 M212.61,960.5c20.05,34.62,37.47,68.28,51.55,100.99c1.67,3.82,0.48,6.93-3.34,8.6
			l-9.55,4.06c-3.82,1.67-6.68,0.24-8.35-3.58c-15.03-35.81-31.74-69.24-48.92-99.8c-2.15-3.82-1.19-6.92,2.39-8.83l7.64-4.06
			C207.6,955.97,210.47,956.92,212.61,960.5"/>
	</defs>
	<clipPath id="SVGID_82_">
		<use xlink:href="#SVGID_81_"  style="overflow:visible;"/>
	</clipPath>
	<g class="st40">
		<defs>
			<rect id="SVGID_83_" y="797" width="1200" height="350"/>
		</defs>
		<clipPath id="SVGID_84_">
			<use xlink:href="#SVGID_83_"  style="overflow:visible;"/>
		</clipPath>
		<rect x="59.42" y="865.25" class="st41" width="213.8" height="214.58"/>
	</g>
</g>
<g>
	<defs>
		<path id="SVGID_85_" d="M425.48,873.36c-0.96,1.91-1.91,4.3-3.34,7.17h72.07c4.3,0,6.44,2.15,6.44,6.45v0.48
			c0,3.34-0.71,5.49-2.63,8.12c-5.25,6.45-12.89,14.33-22.67,23.64h64.67c4.3,0,6.44,2.15,6.44,6.45v125.1
			c0,25.31-3.1,28.65-31.5,28.65c-2.86,0-12.65-0.48-28.88-0.95c-4.3-0.24-6.68-2.39-6.68-6.45c-0.24-4.06,2.15-6.21,6.68-5.97
			c15.27,0.48,23.86,1.19,26.25,1.19c10.26,0,10.5-0.24,10.5-15.76v-27.46H390.63c-3.34,19.58-10.26,37.48-21.95,54.68
			c-2.39,3.58-5.73,4.06-9.07,1.43l-6.92-5.73c-3.1-2.63-3.58-5.49-1.67-8.83c14.56-23.88,20.29-52.29,20.29-101.47v-19.34
			l-10.02,8.12c-3.58,2.86-6.92,2.15-8.83-1.91l-2.39-4.77c-1.67-3.58-1.19-6.21,1.91-8.84c22.19-18.62,39.61-42.02,52.26-69.71
			c1.67-3.58,4.29-4.78,8.11-4.06l8.83,1.67C425.71,866.19,427.38,869.3,425.48,873.36z M392.54,1012.31h51.07v-35.57h-48.68
			C394.69,989.63,393.98,1001.09,392.54,1012.31z M394.93,965.27h48.68v-33.9h-48.68V965.27z M396.12,919.2h54.65
			c7.64-6.92,16.23-15.76,26.01-26.98h-61.33C410.92,899.86,404.71,908.69,396.12,919.2z M467,965.27h55.84v-33.9H467V965.27z
			 M467,1012.31h55.84v-35.57H467V1012.31z"/>
	</defs>
	<clipPath id="SVGID_86_">
		<use xlink:href="#SVGID_85_"  style="overflow:visible;"/>
	</clipPath>
	<g class="st42">
		<defs>
			<rect id="SVGID_87_" y="797" width="1200" height="350"/>
		</defs>
		<clipPath id="SVGID_88_">
			<use xlink:href="#SVGID_87_"  style="overflow:visible;"/>
		</clipPath>
		<rect x="344.12" y="858.37" class="st43" width="207.35" height="228.41"/>
	</g>
</g>
<g>
	<defs>
		<path id="SVGID_89_" d="M809.2,993.21c0,3.58-1.19,5.73-4.3,7.64c-15.75,9.79-34.84,19.34-57.03,28.41h92.59
			c4.3,0,6.44,2.15,6.44,6.45c0,3.58-2.15,5.49-6.44,5.49h-85.67v24.35c0,13.85-3.58,16.24-31.26,16.24
			c-9.55,0-20.52-0.24-33.17-0.96c-3.82-0.24-6.2-2.39-6.44-6.45c-0.24-4.06,2.15-6.21,6.68-5.97c15.51,0.48,25.53,1.19,30.31,1.19
			c10.5,0,9.31,1.19,9.31-9.79v-18.62h-92.59c-4.3,0-6.44-2.15-6.44-6.45c0-3.58,2.15-5.49,6.44-5.49h92.59v-4.54
			c0-4.3,2.15-6.45,6.44-6.45h6.68c11.69-4.78,24.58-10.98,40.33-19.34H675.32c-4.3,0-6.44-2.15-6.44-6.45
			c0-2.86,2.15-4.54,6.44-4.54h127.43C807.05,987.96,809.2,989.87,809.2,993.21 M649.07,882.91c13.6-1.43,29.59-4.3,47.97-7.88
			c4.3-0.96,6.92,0.95,7.64,4.78c0.72,3.82-0.96,6.45-5.25,7.16c-10.74,2.15-21.72,3.82-32.22,5.49l0.48,12.89h29.83
			c4.3,0,6.44,2.15,6.44,6.45c0,1.91-2.15,2.86-6.44,2.86h-29.35l0.72,17.43h28.64c4.3,0,6.44,2.15,6.44,6.45
			c0,1.91-2.15,3.1-6.44,3.1h-28.16l0.72,18.14h137.93l0.48-18.14h-27.92c-4.3,0-6.44-2.15-6.44-6.45c0-1.91,2.15-3.1,6.44-3.1h28.4
			l0.48-17.43h-28.87c-4.3,0-6.44-2.15-6.44-6.45c0-1.91,2.15-2.86,6.44-2.86h29.35l0.72-16.71h-31.5c-4.29,0-6.44-2.15-6.44-6.45
			c0-3.1,2.15-4.78,6.44-4.78h49.4c4.3,0,6.68,2.39,6.44,6.69l-3.34,75.68h7.64c4.3,0,6.44,2.15,6.44,6.45v26.26
			c0,4.3-2.15,6.45-6.44,6.45h-10.74c-4.3,0-6.44-2.15-6.44-6.45v-21.73H655.99v21.73c0,4.3-2.15,6.45-6.44,6.45h-10.74
			c-4.3,0-6.44-2.15-6.44-6.45v-26.26c0-4.3,2.15-6.45,6.44-6.45h7.4l-3.1-69.95C642.87,885.77,645.02,883.38,649.07,882.91
			 M767.44,877.66c-3.58,3.58-7.88,7.4-13.36,11.7l12.89,8.84c3.58,2.62,4.06,5.73,1.19,9.07l-2.86,3.58l0.24,0.24
			c4.53,1.67,5.49,5.25,2.15,8.59c-3.58,3.82-8.11,7.64-13.6,11.94l12.89,8.83c3.58,2.63,3.82,5.49,1.19,9.07l-0.72,0.96
			c-2.63,3.34-5.73,3.58-9.31,0.96c-7.16-5.25-12.65-9.07-16.23-11.7c-6.44,3.82-14.79,8.12-24.58,11.94
			c-3.58,1.43-6.2,0.71-8.83-1.67c-3.1-2.86-2.15-5.97,2.39-7.88c5.73-2.62,11.93-5.97,18.61-10.03c-6.92-4.06-12.65-7.4-17.18-9.55
			c-4.06-2.15-5.01-5.25-2.15-8.83l1.91-2.39l-2.86-2.63c-3.58-3.34-2.86-6.92,1.67-8.83c5.73-2.39,11.93-5.73,18.61-10.03
			c-6.92-4.06-12.65-7.4-17.18-9.55c-4.06-2.15-4.77-5.25-2.15-8.84c1.91-2.62,4.54-3.1,8.11-1.43c9.78,4.3,17.18,8.12,22.91,11.46
			c3.82-3.1,7.88-6.69,12.41-11.46c2.39-2.87,5.25-3.58,8.83-2.15l2.86,1.19C769.82,870.97,770.78,874.31,767.44,877.66
			 M715.41,910.36c10.98,5.01,19.57,9.79,25.77,13.37c4.53-3.58,9.79-8.6,15.75-15.52c-4.29-2.86-9.07-6.45-15.03-10.5
			C735.22,901.77,726.39,906.06,715.41,910.36"/>
	</defs>
	<clipPath id="SVGID_90_">
		<use xlink:href="#SVGID_89_"  style="overflow:visible;"/>
	</clipPath>
	<g class="st44">
		<defs>
			<rect id="SVGID_91_" y="797" width="1200" height="350"/>
		</defs>
		<clipPath id="SVGID_92_">
			<use xlink:href="#SVGID_91_"  style="overflow:visible;"/>
		</clipPath>
		<rect x="626.18" y="862.15" class="st45" width="225.73" height="224.64"/>
	</g>
</g>
<g>
	<defs>
		<path id="SVGID_93_" d="M991.99,895.56c-12.65,32.23-18.38,43.69-22.91,55.15c17.42,21.25,21.48,34.14,21.48,53
			c0,20.05-9.55,30.32-33.41,30.32c-3.58,0-5.73-1.91-6.44-5.73c-0.71-3.82,1.43-6.21,5.97-6.21h-1.91
			c10.26,0,14.32-4.3,14.32-21.96c0-16.95-4.77-28.41-17.42-45.12c-2.39-2.86-2.63-5.49-1.19-8.83
			c7.64-17.43,15.99-36.53,21.72-56.59h-28.4v184.08c0,4.3-2.15,6.45-6.44,6.45h-8.11c-4.3,0-6.44-2.15-6.44-6.45V884.58
			c0-4.3,2.15-6.45,6.44-6.45h57.99c4.29,0,6.44,2.15,6.44,6.45v2.86C993.66,890.31,993.19,892.46,991.99,895.56 M1126.58,980.56
			c0,4.3-2.15,6.45-6.44,6.45h-32.69v66.61c0,10.98-1.67,10.74,11.69,10.74c7.64,0,8.83,0,11.22-6.45
			c0.95-2.62,1.91-13.13,2.39-30.32c0.24-4.54,2.63-6.69,6.92-6.21l9.31,0.96c4.06,0.48,5.97,2.63,5.97,6.92
			c-0.24,7.16-0.24,11.46-0.96,18.62c-0.71,9.31-0.71,18.86-8.59,25.07c-2.86,2.39-7.64,2.63-10.74,3.34
			c-2.15,0.48-12.65,0.72-16.23,0.72c-29.83,0-34.6-2.87-34.6-17.43V987h-13.84c-0.48,49.9-15.99,73.06-64.91,91.68
			c-3.58,1.43-6.44,0.48-8.59-2.87l-0.72-1.43c-2.39-3.82-1.19-6.92,2.86-8.59c35.08-14.09,47.25-34.14,48.2-78.79h-22.19
			c-4.3,0-6.44-2.15-6.44-6.45c0-4.06,2.15-6.21,6.44-6.21h115.5C1124.44,974.35,1126.58,976.5,1126.58,980.56 M1129.92,900.81
			v31.99c0,4.3-2.15,6.45-6.44,6.45h-10.98c-4.3,0-6.45-2.15-6.45-6.45v-26.26h-87.58v26.26c0,4.3-2.15,6.45-6.44,6.45h-10.26
			c-4.3,0-6.44-2.15-6.44-6.45v-31.99c0-4.3,2.15-6.45,6.44-6.45h46.06v-20.05c0-4.3,2.15-6.45,6.44-6.45h11.45
			c4.3,0,6.45,2.15,6.45,6.45v20.05h51.31C1127.78,894.37,1129.92,896.51,1129.92,900.81 M1102,936.62c0,4.06-2.15,6.21-6.44,6.21
			h-66.1c-4.3,0-6.44-2.15-6.44-6.44c0-3.82,2.15-5.73,6.44-5.73h66.1C1099.86,930.66,1102,932.81,1102,936.62"/>
	</defs>
	<clipPath id="SVGID_94_">
		<use xlink:href="#SVGID_93_"  style="overflow:visible;"/>
	</clipPath>
	<g class="st46">
		<defs>
			<rect id="SVGID_95_" y="797" width="1200" height="350"/>
		</defs>
		<clipPath id="SVGID_96_">
			<use xlink:href="#SVGID_95_"  style="overflow:visible;"/>
		</clipPath>
		<rect x="917.79" y="862.87" class="st47" width="222.15" height="222.25"/>
	</g>
</g>
</svg>
